<svg width="24" height="24" viewBox="0 0 24 24" fill="none" xmlns="http://www.w3.org/2000/svg">
<g clip-path="url(#clip0_uzbekistan)">
<path d="M12 24C18.6274 24 24 18.6274 24 12C24 5.37258 18.6274 0 12 0C5.37258 0 0 5.37258 0 12C0 18.6274 5.37258 24 12 24Z" fill="#F0F0F0"/>
<path d="M23.8995 15.1304C23.9652 14.4174 24 13.6956 24 12.9652C24 12.2348 23.9652 11.513 23.8995 10.8H0.100547C0.0347812 11.513 0 12.2348 0 12.9652C0 13.6956 0.0347812 14.4174 0.100547 15.1304L12 15.6522L23.8995 15.1304Z" fill="#D80027"/>
<path d="M12 24C17.7985 24 22.6496 20.1565 23.8995 15.1304H0.100547C1.35039 20.1565 6.20149 24 12 24Z" fill="#6DA544"/>
<path d="M12 0C6.20149 0 1.35039 3.84348 0.100547 8.86957H23.8995C22.6496 3.84348 17.7985 0 12 0Z" fill="#338AF3"/>
<path d="M6.26087 8.34783C7.72098 8.34783 8.95652 7.32173 8.95652 6.08696C8.95652 4.85218 7.72098 3.82609 6.26087 3.82609C4.80076 3.82609 3.56522 4.85218 3.56522 6.08696C3.56522 7.32173 4.80076 8.34783 6.26087 8.34783Z" fill="#F0F0F0"/>
<path d="M6.26087 7.56522C7.29231 7.56522 8.17391 6.88521 8.17391 6.08696C8.17391 5.2887 7.29231 4.6087 6.26087 4.6087C5.22943 4.6087 4.34783 5.2887 4.34783 6.08696C4.34783 6.88521 5.22943 7.56522 6.26087 7.56522Z" fill="#338AF3"/>
<circle cx="8.47826" cy="4.17391" r="0.391304" fill="#F0F0F0"/>
<circle cx="9.65217" cy="4.69565" r="0.391304" fill="#F0F0F0"/>
<circle cx="10.4348" cy="5.73913" r="0.391304" fill="#F0F0F0"/>
<circle cx="10.4348" cy="6.78261" r="0.391304" fill="#F0F0F0"/>
<circle cx="9.65217" cy="7.82609" r="0.391304" fill="#F0F0F0"/>
<circle cx="8.47826" cy="8.34783" r="0.391304" fill="#F0F0F0"/>
<circle cx="7.30435" cy="8.86957" r="0.391304" fill="#F0F0F0"/>
<circle cx="6.13043" cy="9.13043" r="0.391304" fill="#F0F0F0"/>
<circle cx="4.95652" cy="8.86957" r="0.391304" fill="#F0F0F0"/>
<circle cx="3.78261" cy="8.34783" r="0.391304" fill="#F0F0F0"/>
<circle cx="2.6087" cy="7.82609" r="0.391304" fill="#F0F0F0"/>
<circle cx="1.82609" cy="6.78261" r="0.391304" fill="#F0F0F0"/>
</g>
<defs>
<clipPath id="clip0_uzbekistan">
<rect width="24" height="24" fill="white"/>
</clipPath>
</defs>
</svg>
