<svg width="72" height="72" viewBox="0 0 72 72" fill="none" xmlns="http://www.w3.org/2000/svg">
<g clip-path="url(#clip0_8_421)">
<mask id="mask0_8_421" style="mask-type:luminance" maskUnits="userSpaceOnUse" x="0" y="0" width="72" height="72">
<path d="M54 0H18C8.05887 0 0 8.05887 0 18V54C0 63.9411 8.05887 72 18 72H54C63.9411 72 72 63.9411 72 54V18C72 8.05887 63.9411 0 54 0Z" fill="white"/>
</mask>
<g mask="url(#mask0_8_421)">
<path d="M54 0H18C8.05887 0 0 8.05887 0 18V54C0 63.9411 8.05887 72 18 72H54C63.9411 72 72 63.9411 72 54V18C72 8.05887 63.9411 0 54 0Z" fill="white"/>
<mask id="mask1_8_421" style="mask-type:alpha" maskUnits="userSpaceOnUse" x="0" y="0" width="72" height="72">
<path d="M54 0H18C8.05887 0 0 8.05887 0 18V54C0 63.9411 8.05887 72 18 72H54C63.9411 72 72 63.9411 72 54V18C72 8.05887 63.9411 0 54 0Z" fill="#D9D9D9"/>
</mask>
<g mask="url(#mask1_8_421)">
<path d="M0 52.2C0 48.2236 3.22355 45 7.2 45H23.4V72H0V52.2Z" fill="url(#paint0_linear_8_421)"/>
<path d="M24 41.4C24 37.4236 27.2236 34.2 31.2 34.2H48.0001V71.9999H24V41.4Z" fill="url(#paint1_linear_8_421)"/>
<path d="M48.5999 28.7999C48.5999 24.8235 51.8235 21.5999 55.7999 21.5999H71.9999V71.9999H48.5999V28.7999Z" fill="url(#paint2_linear_8_421)"/>
<path d="M17.2988 1.5H54.7012C63.4266 1.5 70.5 8.57345 70.5 17.2988V54.7012C70.5 63.4266 63.4266 70.5 54.7012 70.5H17.2988C8.57345 70.5 1.5 63.4266 1.5 54.7012V17.2988C1.5 8.57345 8.57345 1.5 17.2988 1.5Z" stroke="white" stroke-width="3"/>
</g>
</g>
</g>
<defs>
<linearGradient id="paint0_linear_8_421" x1="0" y1="55.8" x2="23.4" y2="55.8" gradientUnits="userSpaceOnUse">
<stop stop-color="#8460ED"/>
<stop offset="1" stop-color="#8460ED" stop-opacity="0.8"/>
</linearGradient>
<linearGradient id="paint1_linear_8_421" x1="24" y1="49.3199" x2="48.0001" y2="49.3199" gradientUnits="userSpaceOnUse">
<stop stop-color="#8460ED"/>
<stop offset="1" stop-color="#8460ED" stop-opacity="0.8"/>
</linearGradient>
<linearGradient id="paint2_linear_8_421" x1="48.5999" y1="41.7599" x2="71.9999" y2="41.7599" gradientUnits="userSpaceOnUse">
<stop stop-color="#8460ED"/>
<stop offset="1" stop-color="#8460ED" stop-opacity="0.8"/>
</linearGradient>
<clipPath id="clip0_8_421">
<rect width="72" height="72" fill="white"/>
</clipPath>
</defs>
</svg>
