<svg width="132" height="40" viewBox="0 0 132 40" fill="none" xmlns="http://www.w3.org/2000/svg">
<rect width="40" height="40" rx="8" fill="white"/>
<path d="M17.8711 9.00085H28.9934C28.9951 12.6769 29.0062 16.3529 28.9951 20.0297C28.9806 24.8371 25.8501 29.0618 21.2292 30.4972C20.4994 30.724 19.7328 30.8352 18.9842 31H16.7598C16.622 30.9703 16.4843 30.9329 16.3448 30.9125C14.9665 30.7087 13.6387 30.3231 12.4589 29.5841C11.5982 29.0439 10.8171 28.3797 10 27.7716C10 27.7436 10 27.7147 10 27.6867C11.0797 26.619 12.1594 25.5522 13.2391 24.4837C13.7011 24.0268 13.6917 24.0378 14.2111 24.4387C16.1036 25.8988 18.1877 26.1969 20.3497 25.1947C22.4971 24.1992 23.6205 22.4351 23.6787 20.0713C23.7215 18.3336 23.6898 16.5932 23.6872 14.8538C23.6872 14.2957 23.6479 14.2584 23.0721 14.2567C21.5192 14.2533 19.9673 14.2473 18.4144 14.2592C18.0097 14.2626 17.8617 14.1131 17.866 13.7088C17.8814 12.1392 17.872 10.5696 17.872 9L17.8711 9.00085Z" fill="black" fill-opacity="0.85"/>
<rect x="46" width="40" height="40" rx="8" fill="white" fill-opacity="0.24"/>
<path d="M55.2 10.1C55.2 9.8613 55.2948 9.63238 55.4636 9.4636C55.6324 9.29482 55.8613 9.2 56.1 9.2H58.0536C58.5608 9.19984 59.0509 9.38324 59.4333 9.71631C59.8158 10.0494 60.0648 10.5096 60.1344 11.012L60.216 11.6C65.6041 11.6117 70.9765 12.1795 76.248 13.2944C76.4783 13.3435 76.6802 13.481 76.8103 13.6773C76.9404 13.8736 76.9884 14.1131 76.944 14.3444C76.461 16.8644 75.8124 19.3498 75.0024 21.7844C74.9427 21.9637 74.828 22.1197 74.6746 22.2302C74.5213 22.3407 74.337 22.4001 74.148 22.4H61.2C60.6162 22.4003 60.0452 22.5707 59.5567 22.8904C59.0683 23.21 58.6835 23.6651 58.4496 24.2H74.7C74.9387 24.2 75.1676 24.2948 75.3364 24.4636C75.5052 24.6324 75.6 24.8613 75.6 25.1C75.6 25.3387 75.5052 25.5676 75.3364 25.7364C75.1676 25.9052 74.9387 26 74.7 26H57.312C57.188 26 57.0654 25.9744 56.9518 25.9248C56.8382 25.8753 56.736 25.8027 56.6517 25.7118C56.5675 25.6209 56.5029 25.5135 56.462 25.3965C56.4212 25.2794 56.405 25.1552 56.4144 25.0316C56.4869 24.0913 56.8347 23.1933 57.4143 22.4493C57.9938 21.7054 58.7796 21.1486 59.6736 20.8484L58.3512 11.2592C58.3413 11.1873 58.3057 11.1214 58.251 11.0738C58.1963 11.0261 58.1262 10.9999 58.0536 11H56.1C55.8613 11 55.6324 10.9052 55.4636 10.7364C55.2948 10.5676 55.2 10.3387 55.2 10.1ZM61.2 29C61.2 29.4774 61.0104 29.9352 60.6728 30.2728C60.3352 30.6104 59.8774 30.8 59.4 30.8C58.9226 30.8 58.4648 30.6104 58.1272 30.2728C57.7896 29.9352 57.6 29.4774 57.6 29C57.6 28.5226 57.7896 28.0648 58.1272 27.7272C58.4648 27.3896 58.9226 27.2 59.4 27.2C59.8774 27.2 60.3352 27.3896 60.6728 27.7272C61.0104 28.0648 61.2 28.5226 61.2 29ZM72.6 30.8C73.0774 30.8 73.5352 30.6104 73.8728 30.2728C74.2104 29.9352 74.4 29.4774 74.4 29C74.4 28.5226 74.2104 28.0648 73.8728 27.7272C73.5352 27.3896 73.0774 27.2 72.6 27.2C72.1226 27.2 71.6648 27.3896 71.3272 27.7272C70.9896 28.0648 70.8 28.5226 70.8 29C70.8 29.4774 70.9896 29.9352 71.3272 30.2728C71.6648 30.6104 72.1226 30.8 72.6 30.8Z" fill="white" fill-opacity="0.78"/>
<rect x="92" width="40" height="40" rx="8" fill="white" fill-opacity="0.24"/>
<path d="M118.375 10.25C117.339 10.25 116.5 11.0895 116.5 12.125V27.875C116.5 28.9105 117.339 29.75 118.375 29.75H119.125C120.161 29.75 121 28.9105 121 27.875V12.125C121 11.0895 120.161 10.25 119.125 10.25H118.375Z" fill="white" fill-opacity="0.78"/>
<path d="M109.75 16.625C109.75 15.5895 110.589 14.75 111.625 14.75H112.375C113.411 14.75 114.25 15.5895 114.25 16.625V27.875C114.25 28.9105 113.411 29.75 112.375 29.75H111.625C110.589 29.75 109.75 28.9105 109.75 27.875V16.625Z" fill="white" fill-opacity="0.78"/>
<path d="M103 21.125C103 20.0895 103.839 19.25 104.875 19.25H105.625C106.661 19.25 107.5 20.0895 107.5 21.125V27.875C107.5 28.9105 106.661 29.75 105.625 29.75H104.875C103.839 29.75 103 28.9105 103 27.875V21.125Z" fill="white" fill-opacity="0.78"/>
</svg>
