<svg width="148" height="32" viewBox="0 0 148 32" fill="none" xmlns="http://www.w3.org/2000/svg">
<g clip-path="url(#clip0_1_65)">
<path d="M52.3125 5.99977C54.0175 5.99977 55.7225 5.99977 57.4275 5.99977C58.7202 9.99359 60.0137 13.9874 61.3064 17.9805C61.4451 17.8399 61.4947 17.711 61.5373 17.5797C62.2821 15.277 63.0284 12.9751 63.7685 10.6716C64.2692 9.11637 64.7598 7.55729 65.255 5.99977C66.96 5.99977 68.665 5.99977 70.37 5.99977C70.3289 6.10787 70.2824 6.21366 70.2468 6.32409C68.176 12.7326 66.1052 19.1411 64.0367 25.5503C63.9894 25.6955 63.97 25.85 63.9375 25.9998H58.8225C57.5306 22.0059 56.2386 18.0121 54.9459 14.0183C54.8126 14.148 54.7638 14.2639 54.7251 14.3828C54.0004 16.6237 53.2743 18.8646 52.5535 21.1071C52.0296 22.7364 51.5142 24.3681 50.995 25.999H45.88C45.6025 25.1171 45.3305 24.233 45.0469 23.3527C43.1814 17.5681 41.3145 11.7843 39.4475 5.99977C41.1525 5.99977 42.8575 5.99977 44.5625 5.99977C44.595 6.15034 44.6144 6.30401 44.6617 6.44996C45.8583 10.1612 47.0572 13.8724 48.2569 17.582C48.2972 17.7063 48.3546 17.8252 48.4437 18.043C48.5305 17.8168 48.5816 17.7017 48.6204 17.582C49.8201 13.8716 51.019 10.1612 52.2148 6.44919C52.2621 6.30401 52.2807 6.14957 52.3133 5.99899L52.3125 5.99977Z" fill="black" fill-opacity="0.85"/>
<path d="M28.5975 5.99982C29.295 5.99982 29.9925 5.99982 30.69 5.99982C30.8148 6.02762 30.9388 6.06314 31.0651 6.08244C35.8918 6.82298 39.5529 10.8554 39.6823 15.5759C39.8195 20.5797 36.4947 24.8114 31.6363 25.816C31.3216 25.8809 31.0054 25.9388 30.6892 25.9998H28.5967C28.4712 25.9728 28.3472 25.938 28.2201 25.9195C23.5003 25.2214 19.826 21.2886 19.6036 16.6948C19.361 11.6778 22.5075 7.41217 27.3087 6.2585C27.7349 6.1558 28.1681 6.08553 28.5975 5.99982ZM24.497 16.0106C24.5001 18.8299 26.7979 21.1211 29.6267 21.1241C32.4671 21.128 34.7882 18.816 34.7828 15.989C34.7774 13.1774 32.4663 10.8778 29.6445 10.8755C26.7964 10.8732 24.4946 13.1697 24.497 16.0106Z" fill="black" fill-opacity="0.85"/>
<path d="M7.13 5.99961H17.205C17.2066 9.3417 17.2166 12.6838 17.2066 16.0266C17.1934 20.3973 14.3577 24.2382 10.1719 25.5432C9.5108 25.7494 8.8164 25.8506 8.13828 26.0004H6.12328C5.9985 25.9734 5.87373 25.9394 5.7474 25.9209C4.49888 25.7355 3.29608 25.3849 2.22735 24.7131C1.4477 24.222 0.740125 23.6181 0 23.0653C0 23.0398 0 23.0135 0 22.988C0.97805 22.0174 1.9561 21.0475 2.93415 20.0761C3.35265 19.6606 3.34413 19.6707 3.81455 20.0351C5.52885 21.3625 7.41675 21.6336 9.37518 20.7224C11.3204 19.8174 12.338 18.2135 12.3907 16.0645C12.4295 14.4846 12.4008 12.9023 12.3985 11.3208C12.3985 10.8135 12.3628 10.7795 11.8412 10.778C10.4346 10.7749 9.02875 10.7695 7.62213 10.7803C7.25555 10.7834 7.12148 10.6475 7.12535 10.2799C7.1393 8.85289 7.13078 7.42587 7.13078 5.99884L7.13 5.99961Z" fill="black" fill-opacity="0.85"/>
<path d="M72.695 25.9998C72.702 25.6014 72.7152 25.2029 72.7159 24.8052C72.7175 21.989 72.7167 19.1736 72.7167 16.3574C72.7167 15.7906 72.9949 15.5069 73.5514 15.5064C74.8673 15.5041 76.1841 15.501 77.5 15.4979V25.9998H72.695Z" fill="black" fill-opacity="0.85"/>
<path d="M77.5 10.8647C76.1197 10.8624 74.7395 10.86 73.36 10.8562C72.7314 10.8546 72.7206 10.8423 72.7175 10.2014C72.7097 8.80059 72.7028 7.40059 72.6958 5.99982C74.2977 5.99982 75.8989 5.99982 77.5008 5.99982V10.8647H77.5Z" fill="black" fill-opacity="0.85"/>
</g>
<g opacity="0.5">
<path d="M93.2222 26.0754C92.3696 26.0754 91.5881 25.9955 90.8776 25.8356C90.1848 25.6935 89.5898 25.5248 89.0924 25.3294C88.5951 25.1162 88.2309 24.9386 88 24.7965L88.6661 23.0647C89.0036 23.26 89.5631 23.5087 90.3447 23.8107C91.144 24.0949 92.1032 24.237 93.2222 24.237C94.0571 24.237 94.7765 24.1304 95.3804 23.9173C95.9843 23.7041 96.455 23.3755 96.7925 22.9314C97.13 22.4874 97.2988 21.919 97.2988 21.2262C97.2988 20.3736 97.0856 19.6897 96.6593 19.1746C96.233 18.6417 95.6824 18.1977 95.0074 17.8424C94.3502 17.4872 93.6574 17.1674 92.9291 16.8832C92.3252 16.6346 91.7479 16.3592 91.1973 16.0573C90.6644 15.7375 90.1937 15.3823 89.7852 14.9915C89.3766 14.6007 89.0569 14.1478 88.826 13.6327C88.5951 13.0998 88.4796 12.4959 88.4796 11.8209C88.4796 10.24 88.9681 9.00549 89.945 8.11735C90.9397 7.22922 92.3252 6.78515 94.1015 6.78515C95.0962 6.78515 96.0199 6.90061 96.8725 7.13152C97.7428 7.34468 98.3645 7.60223 98.7375 7.9042L98.0448 9.71599C97.654 9.48508 97.0945 9.24528 96.3662 8.9966C95.6557 8.74793 94.8742 8.62359 94.0216 8.62359C93.4354 8.62359 92.8759 8.73016 92.343 8.94332C91.8279 9.15647 91.4016 9.4762 91.0641 9.9025C90.7266 10.311 90.5578 10.8262 90.5578 11.4479C90.5578 12.1939 90.7177 12.7978 91.0374 13.2597C91.3571 13.7215 91.8012 14.1123 92.3696 14.432C92.9558 14.7517 93.613 15.0803 94.3413 15.4178C95.1406 15.7553 95.8511 16.0928 96.4728 16.4303C97.0945 16.7678 97.6185 17.1497 98.0448 17.576C98.4711 17.9845 98.7908 18.4819 99.004 19.0681C99.2349 19.6365 99.3504 20.3292 99.3504 21.1463C99.3504 22.7094 98.8086 23.9261 97.7251 24.7965C96.6593 25.6491 95.1584 26.0754 93.2222 26.0754Z" fill="black"/>
<path d="M103.336 25.6758V5.37302L105.414 5V12.114C105.876 11.9363 106.364 11.8031 106.879 11.7143C107.394 11.6255 107.909 11.5811 108.425 11.5811C109.846 11.5811 110.956 11.8475 111.755 12.3804C112.554 12.8955 113.114 13.6327 113.434 14.5919C113.771 15.5333 113.94 16.6346 113.94 17.8957V25.6758H111.862V18.4552C111.862 17.2118 111.746 16.2349 111.515 15.5244C111.302 14.7961 110.929 14.2721 110.396 13.9524C109.881 13.6327 109.162 13.4728 108.238 13.4728C107.687 13.4728 107.137 13.535 106.586 13.6593C106.035 13.7837 105.645 13.8902 105.414 13.979V25.6758H103.336Z" fill="black"/>
<path d="M123.44 25.9689C122.268 25.9689 121.22 25.6758 120.296 25.0896C119.39 24.4857 118.671 23.6508 118.138 22.5851C117.605 21.5015 117.339 20.2315 117.339 18.775C117.339 17.3184 117.596 16.0573 118.112 14.9915C118.644 13.908 119.373 13.0643 120.296 12.4603C121.22 11.8564 122.268 11.5544 123.44 11.5544C124.648 11.5544 125.714 11.8564 126.638 12.4603C127.579 13.0643 128.316 13.908 128.849 14.9915C129.382 16.0573 129.648 17.3184 129.648 18.775C129.648 20.2315 129.382 21.5015 128.849 22.5851C128.316 23.6508 127.579 24.4857 126.638 25.0896C125.714 25.6758 124.648 25.9689 123.44 25.9689ZM123.467 24.0505C124.675 24.0505 125.643 23.5887 126.371 22.665C127.117 21.7236 127.49 20.4269 127.49 18.775C127.49 17.123 127.117 15.8264 126.371 14.8849C125.625 13.9258 124.648 13.4462 123.44 13.4462C122.268 13.4462 121.318 13.9258 120.589 14.8849C119.861 15.8264 119.497 17.123 119.497 18.775C119.497 20.4269 119.87 21.7236 120.616 22.665C121.362 23.5887 122.312 24.0505 123.467 24.0505Z" fill="black"/>
<path d="M133.154 30.6049V12.3005C133.651 12.1584 134.3 12.0074 135.099 11.8475C135.898 11.6699 136.866 11.5811 138.003 11.5811C139.3 11.5811 140.437 11.8742 141.414 12.4603C142.408 13.0287 143.181 13.8547 143.732 14.9382C144.3 16.0217 144.584 17.3095 144.584 18.8016C144.584 20.1871 144.336 21.4216 143.838 22.5051C143.359 23.5887 142.666 24.4413 141.76 25.063C140.854 25.6847 139.779 25.9955 138.536 25.9955C137.719 25.9955 137.017 25.8978 136.431 25.7024C135.863 25.507 135.463 25.3028 135.232 25.0896V30.6049H133.154ZM138.376 24.0505C139.335 24.0505 140.108 23.8196 140.694 23.3577C141.298 22.8781 141.733 22.2387 142 21.4394C142.284 20.64 142.426 19.7519 142.426 18.775C142.426 17.052 142.009 15.7375 141.174 14.8316C140.339 13.9258 139.291 13.4728 138.03 13.4728C137.23 13.4728 136.618 13.5083 136.191 13.5794C135.765 13.6504 135.445 13.7304 135.232 13.8192V22.8781C135.534 23.1624 135.978 23.4288 136.564 23.6775C137.168 23.9261 137.772 24.0505 138.376 24.0505Z" fill="black"/>
</g>
<defs>
<clipPath id="clip0_1_65">
<rect width="77.5" height="20" fill="white" transform="translate(0 6)"/>
</clipPath>
</defs>
</svg>
