<svg width="40" height="40" viewBox="0 0 40 40" fill="none" xmlns="http://www.w3.org/2000/svg">
<g clip-path="url(#clip0_9526_122087)">
<rect width="40" height="40" rx="10" fill="#8460ED"/>
<mask id="mask0_9526_122087" style="mask-type:alpha" maskUnits="userSpaceOnUse" x="0" y="0" width="40" height="40">
<rect width="40" height="40" rx="10" fill="#D9D9D9"/>
</mask>
<g mask="url(#mask0_9526_122087)">
<path d="M0 29C0 26.7909 1.79086 25 4 25H13V40H0V29Z" fill="url(#paint0_linear_9526_122087)"/>
<path d="M13.3333 23C13.3333 20.7909 15.1242 19 17.3333 19H26.6667V40H13.3333V23Z" fill="url(#paint1_linear_9526_122087)"/>
<path d="M27 16C27 13.7909 28.7909 12 31 12H40V40H27V16Z" fill="url(#paint2_linear_9526_122087)"/>
<rect x="0.75" y="0.75" width="38.5" height="38.5" rx="9.25" stroke="#8460ED" stroke-width="1.5"/>
</g>
</g>
<defs>
<linearGradient id="paint0_linear_9526_122087" x1="7" y1="31" x2="13" y2="31" gradientUnits="userSpaceOnUse">
<stop stop-color="white"/>
<stop offset="1" stop-color="white" stop-opacity="0.6"/>
</linearGradient>
<linearGradient id="paint1_linear_9526_122087" x1="20.5128" y1="27.4" x2="26.6667" y2="27.4" gradientUnits="userSpaceOnUse">
<stop stop-color="white"/>
<stop offset="1" stop-color="white" stop-opacity="0.6"/>
</linearGradient>
<linearGradient id="paint2_linear_9526_122087" x1="34" y1="23.2" x2="40" y2="23.2" gradientUnits="userSpaceOnUse">
<stop stop-color="white"/>
<stop offset="1" stop-color="white" stop-opacity="0.6"/>
</linearGradient>
<clipPath id="clip0_9526_122087">
<rect width="40" height="40" rx="10" fill="white"/>
</clipPath>
</defs>
</svg>
